<?xml version="1.0" encoding="utf-8"?>
<!-- Generator: Adobe Illustrator 16.0.0, SVG Export Plug-In . SVG Version: 6.00 Build 0)  -->
<!DOCTYPE svg PUBLIC "-//W3C//DTD SVG 1.1//EN" "http://www.w3.org/Graphics/SVG/1.1/DTD/svg11.dtd">
<svg version="1.1" id="Layer_1" xmlns="http://www.w3.org/2000/svg" xmlns:xlink="http://www.w3.org/1999/xlink" x="0px" y="0px"
	 width="400px" height="221px" viewBox="0 0 400 221" enable-background="new 0 0 400 221" xml:space="preserve">
<g>
	<g>
		<path fill-rule="evenodd" clip-rule="evenodd" fill="#1A1786" d="M515.028-96.442c-2.605-6.071-0.648-10.46,5.965-15.756
			c9.534-7.63,18.814-15.585,28.115-23.502c11.039-9.399,21.971-18.924,32.983-28.351c4.027-3.447,8.579-0.589,12.179,0.272
			c16.913,4.053,33.866,7.864,50.93,11.213c1.697,0.333,3.206,1.638,4.799,2.49c-0.959,1.132-1.813,2.378-2.893,3.382
			c-16.377,15.281-32.785,30.531-49.191,45.784c-0.41,0.381-0.964,0.641-1.283,1.078c-7.404,10.202-16.762,4.483-25.357,2.828
			c-15.518-2.994-30.722-7.643-46.426-9.597c-6.916-0.862-9.197,3.376-6.388,10.157C517.317-94.043,516.171-97.618,515.028-96.442z"
			/>
		<path fill-rule="evenodd" clip-rule="evenodd" fill="#1A1786" d="M515.028-96.442c1.143-0.945,2.289,1.962,3.433,0
			c5.379,4.182,12.106,4.092,18.278,5.68c17.666,4.546,35.737,7.375,53.256,12.56c2.092,0.62,3.807-0.186,5.504-1.856
			c10.39-10.223,20.914-20.313,31.449-30.387c4.295-4.106,9.551-7.204,12.877-12.329c1.984-1.064,3.512-2.59,4.579-4.579
			c2.81-1.431,4.263-4.591,7.366-5.707c0.922-0.331,1.611-2.089,2.701-0.627c0.629,0.841,0.513,2.078-0.456,3.026
			c-2.991,2.93-5.842,6.01-8.903,8.863c-9.885,9.207-19.853,18.322-29.755,27.512c-6.345,5.892-12.874,11.611-18.847,17.858
			c-3.969,4.154-8.039,1.084-11.386,0.378c-19.043-4.005-37.868-9.017-56.88-13.182c-4.094-0.897-7.98-1.761-11.529-3.941
			C515.53-93.9,514.696-94.89,515.028-96.442z"/>
		<path fill-rule="evenodd" clip-rule="evenodd" fill="#1A1786" d="M644.404-127.354c-1.062,1.994-2.585,3.52-4.579,4.579
			c-0.373-1.57-2.572-3.07-1.574-4.397C639.853-129.309,642.309-127.464,644.404-127.354z"/>
	</g>
</g>
<g>
	<path fill-rule="evenodd" clip-rule="evenodd" fill="#070707" d="M674.77-54.732c-1.035-0.063-1.316,0.655-1.426,1.458
		c-0.113,0.827,0.119,1.592,1.019,1.809c0.618,0.15,1.231,0.354,1.905,0.35c5.196-0.029,10.393,0.002,15.59-0.034
		c0.867-0.006,1.174,0.208,1.17,1.12c-0.031,7.595-0.029,15.191-0.002,22.786c0.003,0.831-0.238,1.093-1.078,1.089
		c-6.156-0.031-12.313-0.034-18.469,0.005c-0.762,0.004-0.89-0.194-0.888-0.911c0.028-8.674,0.019-17.349,0.019-26.023
		c0-1.679,0.787-2.582,2.496-2.591c6.396-0.036,12.791-0.001,19.188-0.036c0.699-0.004,0.643,0.315,0.642,0.782
		c-0.008,7.915-0.008,15.83,0.001,23.745c0,0.418,0.008,0.793-0.486,0.933c-0.514-0.308-0.223-0.799-0.224-1.185
		c-0.022-7.509-0.03-15.018,0.003-22.526c0.004-0.815-0.174-1.038-1.021-1.032c-5.831,0.043-11.662,0.018-17.493,0.036
		C675.404-54.958,674.986-55.195,674.77-54.732z"/>
	<path fill-rule="evenodd" clip-rule="evenodd" fill="#070707" d="M641.889-48.012c1.184,0.24,2.358,0.541,3.553,0.696
		c0.638,0.083,0.773,0.352,0.773,0.907c-0.009,6.038-0.028,12.077,0.021,18.114c0.006,0.815-0.414,0.763-0.86,0.673
		c-3.138-0.633-6.268-1.301-9.399-1.958c-1.07-0.224-2.137-0.465-3.211-0.668c-0.752-0.143-1.227-0.377-1.219-1.326
		c0.045-5.358,0.029-10.717,0.014-16.075c-0.002-0.63,0.27-1.231,0.037-1.901c-0.125-0.36,0.068-0.535,0.671-0.412
		c2.617,0.532,5.245,1.007,7.831,1.689c0.336,0.088,0.713,0.018,1.07,0.021C641.281-47.786,641.653-48.104,641.889-48.012z"/>
	<path fill-rule="evenodd" clip-rule="evenodd" fill="#070707" d="M646.93-46.812c0.334-0.894,1.227-0.546,1.805-0.673
		c3.785-0.834,7.604-1.511,11.369-2.45c0.367-0.092,0.802,0.169,1.226-0.352c0,2.411,0,4.659,0,6.907c0,3.637,0,7.274,0,10.911
		c0,1.923,0.017,1.999-1.774,2.394c-3.236,0.714-6.496,1.33-9.746,1.98c-0.154,0.031-0.319,0.004-0.479,0.004
		c-1.45-0.241-2.159-1.029-2.159-2.403c-0.001-4.711,0.006-9.422-0.008-14.133c-0.002-0.568-0.025-1.167,0.274-1.627
		C648.092-47.264,647.107-46.644,646.93-46.812z"/>
	<path fill-rule="evenodd" clip-rule="evenodd" fill="#070707" d="M767.889-68.412c-1.77,0.487-3.305,1.513-4.998,2.176
		c-0.469,0.184-0.787,0.408-0.782-0.443c0.039-6.038,0.043-12.075-0.002-18.113c-0.007-0.968,0.719-1.009,1.237-1.248
		c3.467-1.596,6.958-3.139,10.439-4.706c0.131-0.059,0.236-0.177,0.331-0.25c0.451,0.177,0.245,0.51,0.246,0.748
		c0.012,5.877-0.016,11.755,0.036,17.633c0.007,0.845-0.195,1.332-0.987,1.562C771.56-70.191,769.608-69.544,767.889-68.412z"/>
	<path fill-rule="evenodd" clip-rule="evenodd" fill="#070707" d="M723.009-68.674c-1.543-0.843-3.22-1.372-4.931-1.132
		c-1.896,0.266-3.777,0.09-5.66,0.199c-0.967,0.056-1.449-0.172-1.438-1.337c0.063-5.79,0.029-11.581,0.029-17.372
		c0-1.281,0.314-1.479,1.597-1.173c1.417,0.337,2.835,0.191,4.28,0.025c1.667-0.191,3.384,0.051,4.89,0.814
		c0.749,0.379,1.286,1.088,1.271,2.21C722.966-80.532,723.009-74.621,723.009-68.674z"/>
	<path fill-rule="evenodd" clip-rule="evenodd" fill="#070707" d="M735.729-69.852c-2.135,0.354-4.251,0.277-6.407,0.041
		c-1.854-0.204-3.764-0.033-5.362,1.171c-0.42-0.147-0.222-0.483-0.223-0.722c-0.011-5.672,0.024-11.345-0.034-17.017
		c-0.013-1.172,0.475-1.83,1.437-2.271c1.616-0.741,3.273-0.864,5.062-0.683c1.289,0.13,2.661,0.295,3.985-0.166
		c0.462-0.161,1.025-0.031,1.543-0.033C735.729-82.972,735.729-76.412,735.729-69.852z"/>
	<path fill-rule="evenodd" clip-rule="evenodd" fill="#070707" d="M749.409-91c2.902,1.33,5.75,2.603,8.567,3.939
		c1.138,0.54,2.779,0.673,3.273,1.75c0.501,1.09,0.155,2.574,0.156,3.886c0.007,4.839-0.027,9.679,0.026,14.518
		c0.012,1.067-0.226,0.903-0.996,0.557c-3.481-1.567-6.866-3.347-10.438-4.714c-0.555-0.212-0.607-0.635-0.605-1.187
		C749.418-78.45,749.409-84.648,749.409-91z"/>
	<path fill-rule="evenodd" clip-rule="evenodd" fill="#070707" d="M648.129-67.932c-0.477-0.153-0.585,0.429-0.959,0.48
		c-0.488-0.261-0.227-0.712-0.228-1.061c-0.019-5.806-0.013-11.613-0.013-17.419c2.664-1.292,5.236-2.789,8.158-3.499
		c1.121-0.272,2.263-0.292,3.389-0.471c0.523-0.083,0.453,0.457,0.453,0.817c0,2.235,0,4.47,0,6.705c0,3.432,0,6.864,0,10.297
		c0,0.419,0.131,0.792-0.605,0.818c-2.386,0.085-4.656,0.771-6.846,1.679c-0.301,0.124-0.801-0.018-0.949,0.454
		C649.646-68.899,648.848-68.496,648.129-67.932z"/>
	<path fill-rule="evenodd" clip-rule="evenodd" fill="#070707" d="M646.209-76.568c0.001,2.796-0.037,5.594,0.023,8.389
		c0.02,0.893-0.324,0.815-0.826,0.472c-2.508-1.713-5.387-2.51-8.252-3.323c-0.604-0.172-1.311-0.21-1.924-0.203
		c-0.982,0.012-1.042-0.362-1.037-1.157c0.031-5.473,0.028-10.946,0.001-16.419c-0.003-0.718,0.097-1.003,0.93-0.987
		c3.181,0.062,5.953,1.378,8.756,2.65c1.632,0.74,2.652,1.643,2.392,3.754C645.994-81.148,646.209-78.845,646.209-76.568z"/>
	<path fill-rule="evenodd" clip-rule="evenodd" fill="#070707" d="M747.249-36.012c-0.546-1.273-0.136-2.193,1.251-3.303
		c1.998-1.6,3.943-3.268,5.894-4.927c2.313-1.97,4.604-3.967,6.913-5.943c0.845-0.723,1.799-0.123,2.554,0.058
		c3.545,0.85,7.099,1.648,10.676,2.351c0.356,0.07,0.672,0.343,1.006,0.521c-0.201,0.238-0.38,0.499-0.606,0.709
		c-3.433,3.203-6.873,6.399-10.312,9.597c-0.086,0.08-0.202,0.134-0.269,0.226c-1.553,2.139-3.514,0.94-5.316,0.593
		c-3.252-0.627-6.439-1.602-9.731-2.012c-1.449-0.181-1.928,0.708-1.339,2.13C747.729-35.509,747.489-36.259,747.249-36.012z"/>
	<path fill-rule="evenodd" clip-rule="evenodd" fill="#070707" d="M672.609-89.292c3.258,0.042,6.462,0.382,9.402,1.924
		c0.736,0.386,1.361,0.982,2.04,1.478c0.456,0.333,0.575,0.762,0.572,1.331c-0.024,5.235-0.009,10.471-0.03,15.706
		c-0.002,0.329,0.364,0.963-0.465,0.922c-1.075-1.153-2.41-1.833-3.938-2.16c-1.061,0.025-1.96-0.625-2.996-0.703
		c-0.303-0.535-0.807-0.13-1.197-0.257c-0.262-0.006-0.525,0.017-0.785-0.027c-0.801-0.473-1.688-0.064-2.518-0.248
		c-0.144-0.091-0.182-0.214-0.115-0.37C672.646-77.563,672.592-83.427,672.609-89.292z"/>
	<path fill-rule="evenodd" clip-rule="evenodd" fill="#070707" d="M686.049-68.172c-0.395,0.2-0.738,0.513-0.733-0.354
		c0.034-5.43-0.005-10.859,0.032-16.289c0.009-1.304,1.228-1.795,2.104-2.293c2.066-1.174,4.326-1.816,6.738-1.984
		c1.045-0.072,2.089-0.191,3.14-0.2c-0.005,5.848,0.011,11.696-0.009,17.542c0.049,0.138,0.049,0.279,0.005,0.418
		c-2.895,0.06-5.737,0.418-8.463,1.473C687.823-69.458,686.848-68.967,686.049-68.172z"/>
	<path fill-rule="evenodd" clip-rule="evenodd" fill="#070707" d="M706.209-41.532c-0.464-1.531,0.537-2.345,1.568-3.099
		c4.055-2.966,8.13-5.904,12.184-8.872c0.293-0.214,0.434-0.179,0.785-0.091c4.645,1.173,9.308,2.274,13.96,3.417
		c0.355,0.087,0.666,0.353,0.998,0.535c-0.231,0.263-0.431,0.566-0.7,0.782c-3.519,2.815-7.062,5.599-10.554,8.444
		c-0.528,0.431-1.063,0.412-1.541,0.291c-4.166-1.059-8.315-2.182-12.474-3.273c-0.509-0.134-1.033-0.227-1.557-0.287
		c-1.365-0.159-1.994,0.402-2.189,1.913C706.665-41.42,706.396-41.559,706.209-41.532z"/>
	<path fill-rule="evenodd" clip-rule="evenodd" fill="#0A0A0A" d="M645.053-66.972c-4.199,0-8.305-0.02-12.41,0.017
		c-0.83,0.007-1.095-0.237-1.09-1.078c0.032-5.552,0.035-11.104-0.002-16.656c-0.007-0.917,0.412-0.969,1.146-1.032
		c0.913-0.079,0.798,0.436,0.796,0.995c-0.006,4.434,0.009,8.868-0.016,13.301c-0.004,0.616,0.079,0.827,0.795,0.884
		c2.668,0.212,5.278,0.758,7.723,1.902C642.998-68.169,644.041-67.765,645.053-66.972z"/>
	<path fill-rule="evenodd" clip-rule="evenodd" fill="#080808" d="M650.77-68.652c1.775-0.428,3.432-1.263,5.252-1.531
		c0.945-0.14,1.893-0.352,2.841-0.359c0.725-0.005,0.804-0.258,0.801-0.88c-0.025-4.475,0.013-8.95-0.038-13.424
		c-0.01-0.808,0.277-0.843,0.934-0.874c0.768-0.036,0.784,0.302,0.782,0.896c-0.02,5.633-0.026,11.267,0.006,16.901
		c0.004,0.745-0.14,0.982-0.944,0.973c-4.143-0.048-8.287-0.022-12.438-0.022c0.026-0.404,0.282-0.511,0.645-0.48
		C649.314-67.879,650.152-68.066,650.77-68.652z"/>
	<path fill-rule="evenodd" clip-rule="evenodd" fill="#090909" d="M722.989-67.213c-4.814,0-9.355-0.008-13.896,0.008
		c-0.844,0.003-0.466-0.601-0.467-0.921c-0.024-5.554-0.018-11.109-0.018-16.663c0-0.479,0.045-0.964-0.011-1.438
		c-0.081-0.689,0.075-0.934,0.862-0.945c0.842-0.013,0.842,0.337,0.84,0.969c-0.021,5.115-0.012,10.229-0.012,15.345
		c0,1.808,0.129,1.992,1.989,1.95c1.806-0.041,3.604,0.055,5.425-0.162C719.54-69.288,721.523-69.272,722.989-67.213z"/>
	<path fill-rule="evenodd" clip-rule="evenodd" fill="#080808" d="M723.926-67.384c0.923-1.567,2.527-1.756,3.986-1.692
		c2.086,0.091,4.169,0.174,6.257,0.184c0.462,0.002,0.897-0.107,1.349-0.206c0.753-0.164,0.955-0.485,0.95-1.239
		c-0.035-5.272-0.009-10.546-0.031-15.819c-0.002-0.686,0.052-1.01,0.912-1.02c0.921-0.011,0.782,0.477,0.782,1.019
		c-0.002,5.992-0.012,11.984,0.012,17.977c0.003,0.705-0.077,1.004-0.923,0.993c-4.233-0.057-8.469-0.029-12.703-0.028
		C724.326-67.214,724.127-67.153,723.926-67.384z"/>
	<path fill-rule="evenodd" clip-rule="evenodd" fill="#0C0C0C" d="M766.689-67.212c0.479-0.24,0.96-0.48,1.439-0.72
		c1.865-0.828,3.792-1.525,5.521-2.64c1.184-0.111,1.283-0.834,1.233-1.859c-0.097-2.029-0.058-4.066-0.027-6.1
		c0.044-3.01-0.077-6.02,0.111-9.033c0.075-1.204,1.004-0.501,1.407-0.906c0.148-0.149,0.392,0.18,0.394,0.858
		c0.005,3.478,0.002,6.955,0.001,10.432c0,2.478-0.026,4.957,0.02,7.434c0.012,0.616-0.188,0.872-0.75,0.989
		c-2.023,0.425-4.037,0.906-6.068,1.288c-0.931,0.175-1.814,0.639-2.801,0.497C766.982-66.999,766.713-66.86,766.689-67.212z"/>
	<path fill-rule="evenodd" clip-rule="evenodd" fill="#0B0B0B" d="M706.209-41.532c0.188-0.025,0.459,0.116,0.48-0.24
		c0.799,1.216,2.174,1.351,3.384,1.663c4.351,1.123,8.738,2.104,13.085,3.24c0.559,0.146,0.83-0.081,1.083-0.289
		c2.577-2.124,5.121-4.288,7.675-6.439c1.009-0.851,2.025-1.693,3.026-2.554c0.241-0.208,0.515-0.314,0.722-0.087
		c0.229,0.25-0.085,0.429-0.244,0.566c-1.712,1.468-3.433,2.927-5.154,4.384c-0.574,0.485-1.157,0.958-1.736,1.437
		c-0.337,0.143-0.577,0.383-0.72,0.72c-0.961,0.306-1.653,1.083-2.253,1.747c-1.234,1.369-2.45,1.227-4.023,0.789
		c-4.252-1.182-8.545-2.225-12.847-3.212c-0.644-0.148-1.458,0.125-1.782,1.074c-0.332,0.967,0.091,1.493,0.843,1.754
		c1.579,0.548,3.189,1.02,4.808,1.441c2.428,0.632,4.873,1.192,7.311,1.786c1.164,0.284,2.313,0.685,3.494,0.826
		c0.986,0.118,1.479-0.896,2.146-1.425c3.209-2.552,6.35-5.189,9.521-7.789c0.181-0.148,0.344-0.594,0.644-0.244
		c0.248,0.289,0.018,0.595-0.246,0.799c-3.364,2.618-6.674,5.311-9.802,8.198c-1.47,1.357-2.854,1.117-4.461,0.686
		c-3.938-1.056-7.884-2.077-11.838-3.068c-0.524-0.131-1.113-0.008-1.673-0.002c-0.236-0.092-0.608,0.226-0.72-0.24
		c0.367-0.367,0.021-0.561-0.189-0.79c-0.756-0.816-0.92-1.939-0.181-2.741c0.569-0.618,0.736-0.966-0.099-1.383
		C706.222-41.045,706.172-41.279,706.209-41.532z"/>
	<path fill-rule="evenodd" clip-rule="evenodd" fill="#090909" d="M756.369-66.972c-2.184-0.233-4.297-0.831-6.427-1.321
		c-0.502-0.115-1.108-0.282-1.53-0.29c-1.26-0.024-1.43-0.577-1.422-1.648c0.039-6.074,0.019-12.147,0.019-18.134
		c0.024-0.19,0.077-0.129,0.167-0.13c1.578-0.019,1.542,1.002,1.531,2.169c-0.043,4.757,0.003,9.514-0.038,14.271
		c-0.007,0.778,0.247,1.186,0.93,1.491c2.268,1.015,4.515,2.071,6.771,3.112C756.369-67.292,756.369-67.132,756.369-66.972z"/>
	<path fill-rule="evenodd" clip-rule="evenodd" fill="#080808" d="M682.449-68.172c-1.821,0.088-3.477-0.786-5.285-0.875
		c-1.977-0.097-3.973-0.271-5.903,0.046c-1.083,0.177-1.062-0.121-1.06-0.902c0.016-5.31,0.017-10.621-0.002-15.931
		c-0.003-0.697-0.064-1.284,0.949-1.05c0.202,0.047,0.43-0.33,0.74-0.249c0,5.024-0.004,10.048,0.004,15.073
		c0.002,1.523-0.287,1.486,1.455,1.487c0.16,0,0.32,0,0.479,0c0.357-0.028,0.723,0.062,1.075-0.056
		c0.483,0.588,1.141,0.174,1.704,0.296c1.102,0.167,2.156,0.568,3.275,0.646C680.66-69.052,681.84-69.095,682.449-68.172z"/>
	<path fill-rule="evenodd" clip-rule="evenodd" fill="#080808" d="M698.049-87.132c1.585-0.01,1.74,0.892,1.716,2.258
		c-0.09,4.989-0.042,9.981-0.028,14.972c0.003,0.781,0.025,1.079-1.059,0.902c-1.932-0.316-3.936-0.27-5.9-0.009
		c-1.848,0.245-3.686,0.556-5.528,0.837c1.909-1.376,4.128-1.842,6.394-2.156c1.255-0.174,2.514-0.341,3.788-0.243
		c0.7,0.054,0.62-0.434,0.619-0.875c-0.001-2.514-0.001-5.029-0.001-7.543C698.049-81.704,698.049-84.417,698.049-87.132z"/>
	<path fill-rule="evenodd" clip-rule="evenodd" fill="#0C0C0C" d="M747.249-36.012c0.24-0.199,0.48,0.411,0.72,0
		c1.128,0.876,2.54,0.856,3.834,1.19c3.703,0.957,7.495,1.545,11.168,2.638c0.442,0.132,0.8-0.054,1.153-0.402
		c2.18-2.144,4.307-4.354,6.621-6.343c1.793-1.541,3.264-3.42,5.206-4.788c0.151-0.107,0.284-0.359,0.488-0.156
		c0.18,0.18,0.168,0.443-0.015,0.632c-0.612,0.631-1.208,1.285-1.865,1.866c-2.668,2.355-5.257,4.792-7.78,7.3
		c-0.836,0.83-1.758,1.572-2.607,2.389c-0.645,0.621-1.267,0.097-1.845-0.03c-4.547-0.998-9.083-2.041-13.612-3.112
		C748.093-34.974,747.356-35.15,747.249-36.012z"/>
	<path fill-rule="evenodd" clip-rule="evenodd" fill="#FBFBFB" d="M674.77-54.732c0.057-0.375,0.335-0.235,0.551-0.235
		c6.025-0.002,12.051,0.02,18.076-0.031c0.867-0.007,0.821,0.373,0.82,0.97c-0.012,7.582-0.013,15.165,0.01,22.747
		c0.002,0.33-0.33,0.796,0.223,1.029c-0.148,0.17,0.371,0.57,0.043,0.434c-0.549-0.227-1.277-0.411-1.27-1.396
		c0.051-5.996,0.023-11.991,0.037-17.987c0-0.232-0.207-0.672,0.195-0.683c0.543-0.015,0.26,0.487,0.26,0.733
		c0.019,5.756,0.011,11.512,0.022,17.268c0.001,0.381-0.143,0.79,0.108,1.17c0.262-0.336,0.115-0.708,0.115-1.048
		c0.012-6.995,0.008-13.99,0.008-20.986c0-1.33-0.627-1.983-1.91-1.984c-4.997-0.001-9.994,0.001-14.99-0.003
		c-0.542,0-1.087-0.025-1.539,0.338C675.041-54.003,674.955-54.469,674.77-54.732z"/>
	<path fill-rule="evenodd" clip-rule="evenodd" fill="#F5F5F5" d="M698.049-87.132c0,5.06-0.036,10.12,0.029,15.178
		c0.014,1.092-0.158,1.445-1.357,1.42c-3.246-0.068-6.377,0.564-9.275,2.109c-0.086,0.046-0.132,0.167-0.196,0.252
		c-0.399,0.307-0.8,0.307-1.2,0c1.359-1.363,3.143-1.914,4.912-2.375c2.073-0.54,4.207-0.833,6.574-0.979
		c0.082,0.01-0.182,0.156-0.11,0.44c0.021,0.083,0.185,0.242,0.253,0.177c0.242-0.235,0.132-0.532-0.143-0.617
		c-0.206-5.767-0.206-11.767-0.206-17.767c0.552,0.234,0.221,0.7,0.222,1.031c0.026,5.072,0.015,10.146,0.027,15.218
		c0,0.34-0.146,0.711,0.23,1.203c0-0.872,0-1.575,0-2.278c0-4.034-0.008-8.068,0.02-12.103
		C697.83-86.509,697.521-86.946,698.049-87.132z"/>
	<path fill-rule="evenodd" clip-rule="evenodd" fill="#0D0D0D" d="M706.93-36.012c0.105,0.483,0.486,0.138,0.72,0.24
		c-0.616,0.419-1.097,1.052-0.925,1.732c0.154,0.607,0.762,0.952,1.49,1.184c3.595,1.148,7.305,1.833,10.932,2.842
		c0.826,0.23,1.678,0.384,2.483,0.669c1.425,0.506,2.654,0.421,3.64-0.872c0.2-0.263,0.411-0.617,0.859-0.516c0.16,0,0.32,0,0.48,0
		c-0.844,0.803-1.634,1.675-2.551,2.383c-0.516,0.397-1.159-0.093-1.726-0.232c-4.789-1.18-9.585-2.332-14.348-3.61
		C706.127-32.691,705.275-34.223,706.93-36.012z"/>
	<path fill-rule="evenodd" clip-rule="evenodd" fill="#0D0D0D" d="M641.649-48.732c-1.771,0.038-3.359-0.77-5.053-1.091
		c-0.591-0.112-1.177-0.307-1.77-0.329c-0.669-0.025-0.863-0.28-0.872-0.929c-0.025-1.746-0.043-1.768,1.51-1.012
		c2.141,1.042,4.394,1.854,6.424,3.121C641.892-48.81,641.813-48.729,641.649-48.732z"/>
	<path fill-rule="evenodd" clip-rule="evenodd" fill="#0B0B0B" d="M657.969-52.332c0.674-0.407,1.081-0.393,0.969,0.569
		c-0.047,0.392-0.02,0.794-0.006,1.191c0.007,0.216-0.006,0.354-0.278,0.404c-2.55,0.469-5.097,0.955-7.644,1.435
		c-0.163,0.002-0.242-0.078-0.24-0.24c0.16-0.08,0.32-0.16,0.48-0.24C653.521-50.184,655.778-51.186,657.969-52.332z"/>
	<path fill-rule="evenodd" clip-rule="evenodd" fill="#F3F3F3" d="M674.049-70.572c-2.16,0-2.16,0-2.16-2.102
		c0-4.819,0-9.639,0-14.458c0.553,0.233,0.221,0.7,0.223,1.03c0.027,4.354,0.018,8.708,0.018,13.062c0,0.344,0,0.688,0,1.237
		c0.374-0.571,0.231-0.979,0.232-1.36c0.012-5.073,0.001-10.146,0.026-15.218c0.001-0.288-0.306-0.725,0.222-0.911c0,6,0,12,0,18
		c-0.225-0.016-0.209-0.287-0.416-0.372c-0.144,0.542-0.106,0.872,0.604,0.873C673.208-70.791,673.711-71.063,674.049-70.572z"/>
	<path fill-rule="evenodd" clip-rule="evenodd" fill="#101010" d="M726.609-30.732c-0.16,0-0.32,0-0.48,0
		c0.944-1.254,2.318-2.028,3.462-3.061c1.685-1.522,3.505-2.895,5.254-4.346c0.26-0.215,0.538-0.466,0.803-0.187
		c0.29,0.304-0.127,0.495-0.303,0.642c-2.785,2.325-5.582,4.636-8.384,6.94C726.889-30.684,726.729-30.733,726.609-30.732z"/>
	<path fill-rule="evenodd" clip-rule="evenodd" fill="#070707" d="M646.93-46.812c0.307,0,0.613,0,1.043,0
		c-0.674,0.488-0.803,1.061-0.803,1.681c-0.002,5.023-0.004,10.046,0.001,15.07c0.001,0.966,0.927,1.796,2.158,1.969
		c-0.579,0.356-1.248,0.379-1.891,0.472c-0.821,0.117-0.495-0.54-0.497-0.877c-0.019-4.509-0.012-9.018-0.012-13.526
		C646.93-43.62,646.93-45.216,646.93-46.812z"/>
	<path fill-rule="evenodd" clip-rule="evenodd" fill="#0E0E0E" d="M651.25-50.412c1.6-1.2,3.199-2.4,4.799-3.6
		c0.118-0.027,0.225-0.078,0.314-0.161c0.389,0.438,0.207,1.872-0.297,2.06c-1.516,0.564-2.924,1.37-4.438,1.935
		C651.43-50.138,651.273-50.168,651.25-50.412z"/>
	<path fill-rule="evenodd" clip-rule="evenodd" fill="#F3F3F3" d="M651.489-50.172c1.571-0.653,3.146-1.298,4.71-1.968
		c0.314-0.134,0.51-1.764,0.252-2.024c-0.041-0.042-0.264,0.097-0.402,0.152c0.086-0.226-0.3-0.722,0.432-0.575
		c0.487,0.098,0.457,0.352,0.368,0.614c-0.363,1.07,0.275,1.417,1.12,1.641c-2.239,1.04-4.479,2.08-6.719,3.12
		c-0.08-0.16-0.16-0.32-0.24-0.48C650.951-50.07,651.547-49.793,651.489-50.172z"/>
	<path fill-rule="evenodd" clip-rule="evenodd" fill="#111111" d="M639.969-50.652c-0.904-0.509-1.763-1.119-2.764-1.431
		c-1.221-0.381-0.76-1.325-0.842-2.333c1.494,1.047,2.856,1.952,4.086,3.043C640.436-51.034,639.982-50.99,639.969-50.652z"/>
	<path fill-rule="evenodd" clip-rule="evenodd" fill="#E8E8E8" d="M735.729-69.852c0-6.56,0-13.12,0-19.68
		c0.375,0.057,0.234,0.336,0.234,0.551c0.001,6.192,0.001,12.385,0,18.578C735.964-70.188,736.104-69.909,735.729-69.852z"/>
	<path fill-rule="evenodd" clip-rule="evenodd" fill="#F1F1F1" d="M646.93-85.932c0,5.817-0.008,11.635,0.018,17.453
		c0.002,0.329-0.33,0.795,0.223,1.027c-0.541,0.216-0.502,0.217-0.491-0.186c0.024-0.992,0.011-1.986,0.011-2.979
		c0-4.468-0.014-8.937,0.016-13.405C646.71-84.654,646.259-85.369,646.93-85.932z"/>
	<path fill-rule="evenodd" clip-rule="evenodd" fill="#FAFAFA" d="M700.459-87.355c0,6.06,0,12.12,0,18.18
		c-0.088,0-0.174,0.002-0.262,0.003c0-6.059,0-12.117,0-18.175C700.285-87.35,700.371-87.353,700.459-87.355z"/>
	<path fill-rule="evenodd" clip-rule="evenodd" fill="#EFEFEF" d="M773.649-70.572c-1.727,1.119-3.659,1.805-5.521,2.64
		c-0.024-0.188,0.116-0.458-0.24-0.48c1.72-1.132,3.672-1.778,5.521-2.64C773.434-70.864,773.293-70.594,773.649-70.572z"/>
	<path fill-rule="evenodd" clip-rule="evenodd" fill="#FFFFFF" d="M646.508-28.592c0-5.827,0-11.654,0-17.482
		c0.041,0,0.082,0,0.124,0c0,5.827,0,11.655,0,17.482C646.59-28.591,646.549-28.592,646.508-28.592z"/>
	<path fill-rule="evenodd" clip-rule="evenodd" fill="#FAFAFA" d="M692.964-56.208c-5.728,0-11.456,0-17.185,0
		c0-0.044,0-0.088-0.001-0.132c5.728,0,11.454,0,17.181,0C692.961-56.296,692.963-56.251,692.964-56.208z"/>
	<path fill-rule="evenodd" clip-rule="evenodd" fill="#F3F3F3" d="M682.449-68.172c-0.566-0.868-1.664-0.854-2.4-1.44
		c0.352-0.024,0.214-0.293,0.24-0.48c1.466,0.39,2.795,1.022,3.84,2.16C683.522-67.682,682.99-67.955,682.449-68.172z"/>
	<path fill-rule="evenodd" clip-rule="evenodd" fill="#F1F1F1" d="M650.77-68.652c-0.613,0.593-1.459,0.766-2.16,1.2
		c-0.062-0.259-0.222-0.419-0.48-0.48c0.717-0.566,1.524-0.952,2.4-1.2C650.609-68.972,650.689-68.812,650.77-68.652z"/>
	<path fill-rule="evenodd" clip-rule="evenodd" fill="#181818" d="M639.969-50.652c0.16-0.24,0.32-0.48,0.48-0.72
		c0.234,0.115,0.548,0.17,0.686,0.355c0.275,0.373,1.102,0.602,0.859,0.974c-0.279,0.429-0.848-0.2-1.312-0.287
		C640.434-50.375,640.207-50.541,639.969-50.652z"/>
	<path fill-rule="evenodd" clip-rule="evenodd" fill="#0E0E0E" d="M756.369-66.972c0-0.16,0-0.32,0-0.48c0.4,0.16,0.8,0.32,1.2,0.48
		c0.002,0.162-0.078,0.242-0.24,0.24C757.021-66.856,756.578-66.446,756.369-66.972z"/>
	<path fill-rule="evenodd" clip-rule="evenodd" fill="#F2F2F2" d="M727.81-39.132c0.14-0.34,0.38-0.58,0.72-0.72
		c0.017,0.26,0.442,0.426,0.074,0.794C728.234-38.689,728.068-39.115,727.81-39.132z"/>
	<path fill-rule="evenodd" clip-rule="evenodd" fill="#E8E8E8" d="M641.649-48.732c0.163,0.004,0.243-0.076,0.239-0.24
		c0.344,0.001,0.73,0.079,0.281,0.442c-0.218,0.176-0.27,0.299-0.281,0.518c-0.232-0.103-0.613,0.244-0.719-0.24
		C641.549-48.192,641.709-48.353,641.649-48.732z"/>
	<path fill-rule="evenodd" clip-rule="evenodd" fill="#777777" d="M766.449-66.732c-0.381,0.58-0.937,0.045-1.419,0.141
		c0.313-0.127,0.626-0.254,0.938-0.38C765.993-66.62,766.263-66.758,766.449-66.732z"/>
	<path fill-rule="evenodd" clip-rule="evenodd" fill="#212121" d="M766.449-66.732c-0.188-0.025-0.458,0.117-0.48-0.24
		c0.307,0.12,0.467-0.202,0.721-0.24c0.021,0.356,0.292,0.215,0.479,0.24C767.063-66.488,766.682-66.834,766.449-66.732z"/>
	<path fill-rule="evenodd" clip-rule="evenodd" fill="#323232" d="M651.489-50.172c0.062,0.381-0.541,0.099-0.479,0.48
		c-0.146-0.021-0.291-0.043-0.436-0.064c0.15-0.295,0.346-0.544,0.676-0.656C651.246-50.248,651.326-50.168,651.489-50.172z"/>
	<path fill-rule="evenodd" clip-rule="evenodd" fill="#444444" d="M650.77-48.972c-0.004,0.164,0.076,0.244,0.24,0.24
		c-0.314,0.59-0.816-0.039-1.201,0.15C650.129-48.712,650.449-48.842,650.77-48.972z"/>
	<path fill-rule="evenodd" clip-rule="evenodd" fill="#F6F6F6" d="M713.605-89.867c-0.42,0.072-0.801,0.202-1.227-0.045
		C712.85-90.063,713.249-90.063,713.605-89.867z"/>
	<path fill-rule="evenodd" clip-rule="evenodd" fill="#666666" d="M757.329-66.732c0.164,0.004,0.244-0.076,0.24-0.24
		c0.226,0.119,0.452,0.238,0.678,0.357C757.938-66.637,757.563-66.168,757.329-66.732z"/>
	<path fill-rule="evenodd" clip-rule="evenodd" fill="#F4F4F4" d="M698.333-87.516c0.421-0.072,0.8-0.202,1.227,0.045
		C699.09-87.321,698.689-87.321,698.333-87.516z"/>
	<path fill-rule="evenodd" clip-rule="evenodd" fill="#FFFFFF" d="M680.289-70.092c-0.025,0.188,0.117,0.458-0.24,0.48
		c-1.119-0.24-2.239-0.48-3.359-0.72c-0.5-0.498-1.125-0.125-1.68-0.24c-0.32,0-0.641,0-0.961,0
		c-0.288-0.529-0.787-0.234-1.146-0.211c-0.81,0.051-0.904-0.295-0.717-0.947c0.272,0.032,0.079,0.496,0.423,0.438
		c0.84,0.527,1.765,0.107,2.641,0.24c0.239,0,0.479,0,0.719,0c0.314,0.513,0.811,0.112,1.201,0.24
		C678.238-70.698,679.184-70.046,680.289-70.092z"/>
	<path fill-rule="evenodd" clip-rule="evenodd" fill="#F3F3F3" d="M675.25-71.052c-0.873-0.158-1.805,0.33-2.641-0.24
		C673.482-71.134,674.414-71.622,675.25-71.052z"/>
	<path fill-rule="evenodd" clip-rule="evenodd" fill="#F3F3F3" d="M677.17-70.812c-0.387-0.149-0.895,0.306-1.201-0.24
		C676.355-70.902,676.862-71.358,677.17-70.812z"/>
	<path fill-rule="evenodd" clip-rule="evenodd" fill="#F3F3F3" d="M675.01-70.572c0.555,0.11,1.178-0.25,1.68,0.24
		C676.134-70.442,675.511-70.081,675.01-70.572z"/>
	<path fill-rule="evenodd" clip-rule="evenodd" fill="#FFFFFF" d="M697.779-71.75c0.017,0.292,0.033,0.585,0.052,0.891
		C696.885-71.078,697.771-71.456,697.779-71.75z"/>
</g>
<path fill-rule="evenodd" clip-rule="evenodd" fill="#1A1786" d="M20.578,31.999c-6.075-0.373-7.726,3.843-8.368,8.555
	c-0.665,4.854,0.699,9.342,5.979,10.618c3.628,0.88,7.228,2.075,11.183,2.052c30.497-0.172,60.995,0.014,91.499-0.201
	c5.09-0.037,6.891,1.221,6.867,6.574c-0.184,44.577-0.172,89.158-0.012,133.732c0.018,4.875-1.398,6.417-6.328,6.391
	c-36.131-0.181-72.264-0.197-108.396,0.032c-4.471,0.025-5.222-1.141-5.21-5.348C7.957,143.493,7.9,92.579,7.9,41.668
	c0-9.855,4.619-15.154,14.649-15.209c37.536-0.209,75.072-0.009,112.615-0.212c4.104-0.023,3.771,1.851,3.766,4.591
	c-0.045,46.455-0.045,92.91,0.006,139.364c0,2.453,0.045,4.657-2.854,5.474c-3.016-1.806-1.309-4.691-1.314-6.955
	c-0.131-44.07-0.176-88.141,0.018-132.208c0.023-4.786-1.02-6.093-5.988-6.056c-34.225,0.255-68.448,0.106-102.67,0.209
	C24.303,30.672,21.85,29.279,20.578,31.999z"/>
<rect x="91.415" y="56.288" fill-rule="evenodd" clip-rule="evenodd" fill="none" width="855" height="607.006"/>
<text transform="matrix(1 0 0 1 91.4146 198.2852)" fill="#FFFFFF" font-family="'MyriadPro-Regular'" font-size="200">KM</text>
<text transform="matrix(1 0 0 1 214.5 62.0645)" fill="#FFFFFF" font-family="'MyriadPro-Regular'" font-size="36">Management</text>
</svg>
